<?xml version='1.0' encoding='utf-8'?>
<svg xmlns:xlink="http://www.w3.org/1999/xlink" xmlns="http://www.w3.org/2000/svg" version="1.1" x="0px" y="0px" viewBox="0 0 841.9 595.3" style="enable-background:new 0 0 841.9 595.3;"> <style type="text/css"> .st0{display:none;} .st1{display:inline;} .st2{fill:#1D71B8;} .st3{fill:#9D9D9C;} .st4{fill:#B17F4A;} .st5{fill:#FFFFFF;} .st6{fill:none;stroke:#000000;stroke-miterlimit:10;} .st7{fill:#CBBBA0;} .st8{display:inline;fill:#878787;} .st9{display:inline;fill:#3C3C3B;} .st10{display:inline;fill:#CA9E67;} .st11{display:inline;fill:#B17F4A;} .st12{display:inline;fill:#936037;} .st13{fill:#C6C6C6;} .st14{display:inline;fill:#006633;} .st15{display:inline;fill:#009640;} .st16{fill:none;stroke:#A48A7B;stroke-miterlimit:10;} .st17{fill:#1D71B8;stroke:#A48A7B;stroke-miterlimit:10;} .st18{fill:#36A9E1;} .st19{fill:#82368C;} .st20{fill:none;stroke:#27348B;stroke-miterlimit:10;} .st21{fill:#F08391;} .st22{fill:#599431;} .st23{fill:none;stroke:#1D71B8;stroke-width:3;stroke-miterlimit:10;} .st24{fill:#E2C70A;} .st25{fill:#F39200;} .st26{fill:#FFED00;} .st27{fill:#E83B3B;} .st28{fill:none;stroke:#BE1622;stroke-width:25;stroke-miterlimit:10;} .st29{fill:none;stroke:#BE1622;stroke-width:3;stroke-miterlimit:10;} .st30{fill:#2D2E83;} .st31{fill:none;stroke:#F39200;stroke-width:3;stroke-miterlimit:10;} .st32{fill:none;stroke:#951B81;stroke-width:12;stroke-miterlimit:10;} .st33{clip-path:url(#SVGID_2_);} .st34{clip-path:url(#SVGID_4_);fill:#CBBBA0;} .st35{clip-path:url(#SVGID_4_);fill:none;stroke:#A48A7B;stroke-miterlimit:10;} .st36{clip-path:url(#SVGID_4_);fill:#1D71B8;} .st37{clip-path:url(#SVGID_4_);fill:#36A9E1;} .st38{clip-path:url(#SVGID_6_);} .st39{clip-path:url(#SVGID_8_);fill:#E83B3B;} .st40{clip-path:url(#SVGID_8_);fill:none;stroke:#BE1622;stroke-width:25;stroke-miterlimit:10;} .st41{clip-path:url(#SVGID_8_);fill:none;stroke:#BE1622;stroke-width:3;stroke-miterlimit:10;} .st42{clip-path:url(#SVGID_8_);fill:#E2C70A;} .st43{clip-path:url(#SVGID_10_);} .st44{clip-path:url(#SVGID_12_);fill:#82368C;} .st45{clip-path:url(#SVGID_12_);fill:none;stroke:#27348B;stroke-miterlimit:10;} .st46{clip-path:url(#SVGID_12_);fill:#F08391;} .st47{clip-path:url(#SVGID_14_);} .st48{clip-path:url(#SVGID_16_);fill:#589431;} .st49{clip-path:url(#SVGID_16_);fill:none;stroke:#1D71B8;stroke-width:3;stroke-miterlimit:10;} .st50{clip-path:url(#SVGID_16_);fill:#E2C70A;} .st51{clip-path:url(#SVGID_18_);} .st52{clip-path:url(#SVGID_20_);fill:#2D2E83;} .st53{clip-path:url(#SVGID_20_);fill:none;stroke:#F39200;stroke-width:3;stroke-miterlimit:10;} .st54{clip-path:url(#SVGID_20_);fill:none;stroke:#951B81;stroke-width:12;stroke-miterlimit:10;} .st55{clip-path:url(#SVGID_22_);} .st56{clip-path:url(#SVGID_24_);fill:#F39200;} .st57{clip-path:url(#SVGID_24_);fill:none;stroke:#27348B;stroke-miterlimit:10;} .st58{clip-path:url(#SVGID_24_);fill:#FFED00;} .st59{display:inline;fill:#E94E1B;stroke:#575756;stroke-miterlimit:10;} .st60{display:inline;fill:#DADADA;} .st61{fill:#FFFFFF;stroke:#575756;stroke-miterlimit:10;} .st62{fill:none;stroke:#575756;stroke-miterlimit:10;} .st63{display:inline;fill:#F4A6AF;} .st64{fill:#878787;} .st65{fill:#E6332A;} .st66{fill:#F9B233;} .st67{fill:#E30613;} .st68{fill:#BE1622;} .st69{fill:#009FE3;} .st70{fill:#F6F6F6;} </style> <g id="Ebene_1" class="st0"> <g class="st1"> <path class="st2" d="M221.9,370.3h-47.3c-3.1,0-5.7-2.5-5.7-5.7V145.3c0-3.1,2.5-5.7,5.7-5.7h47.3c3.1,0,5.7,2.5,5.7,5.7v219.3 C227.6,367.8,225,370.3,221.9,370.3z"/> <path d="M221.9,140.3h-47.3c-3.1,0-5.7-2.5-5.7-5.7V24c0-3.1,2.5-5.7,5.7-5.7h47.3c3.1,0,5.7,2.5,5.7,5.7v110.7 C227.6,137.8,225,140.3,221.9,140.3z"/> <rect x="168.9" y="134.7" class="st3" width="58.7" height="10.3"/> <rect x="156" y="49.8" width="12.9" height="4.5"/> <rect x="156" y="52.1" width="3.3" height="113.6"/> <rect x="159.5" y="164.3" transform="matrix(0.9317 -0.3631 0.3631 0.9317 -52.2587 70.414)" width="3.3" height="19.8"/> </g> <g class="st1"> <polygon class="st4" points="880.3,82.3 595.3,82.3 737.3,-115.7 737.3,-115.7 "/> <polygon class="st5" points="820,53.4 655.5,53.4 737.5,-60.8 737.5,-60.8 "/> <g> <line class="st6" x1="619.3" y1="72.3" x2="619.3" y2="81.6"/> <line class="st6" x1="622.3" y1="72.3" x2="622.3" y2="76.6"/> <line class="st6" x1="625.3" y1="72.3" x2="625.3" y2="76.6"/> <line class="st6" x1="628.3" y1="72.3" x2="628.3" y2="76.6"/> <line class="st6" x1="631.3" y1="72.3" x2="631.3" y2="78.9"/> <line class="st6" x1="634.3" y1="72.3" x2="634.3" y2="76.6"/> <line class="st6" x1="637.3" y1="72.3" x2="637.3" y2="76.6"/> <line class="st6" x1="640.3" y1="72.3" x2="640.3" y2="76.6"/> <line class="st6" x1="643.3" y1="72.3" x2="643.3" y2="81.6"/> <line class="st6" x1="646.3" y1="72.3" x2="646.3" y2="76.6"/> <line class="st6" x1="649.3" y1="72.3" x2="649.3" y2="76.6"/> <line class="st6" x1="652.3" y1="72.3" x2="652.3" y2="76.6"/> <line class="st6" x1="655.3" y1="72.3" x2="655.3" y2="78.9"/> <line class="st6" x1="658.3" y1="72.3" x2="658.3" y2="76.6"/> <line class="st6" x1="661.3" y1="72.3" x2="661.3" y2="76.6"/> <line class="st6" x1="664.3" y1="72.3" x2="664.3" y2="76.6"/> <line class="st6" x1="667.3" y1="72.3" x2="667.3" y2="81.6"/> <line class="st6" x1="670.3" y1="72.3" x2="670.3" y2="76.6"/> <line class="st6" x1="673.3" y1="72.3" x2="673.3" y2="76.6"/> <line class="st6" x1="676.3" y1="72.3" x2="676.3" y2="76.6"/> <line class="st6" x1="679.3" y1="72.3" x2="679.3" y2="78.9"/> <line class="st6" x1="682.3" y1="72.3" x2="682.3" y2="76.6"/> <line class="st6" x1="685.3" y1="72.3" x2="685.3" y2="76.6"/> <line class="st6" x1="688.3" y1="72.3" x2="688.3" y2="76.6"/> <line class="st6" x1="691.3" y1="72.3" x2="691.3" y2="81.6"/> <line class="st6" x1="694.3" y1="72.3" x2="694.3" y2="76.6"/> <line class="st6" x1="697.3" y1="72.3" x2="697.3" y2="76.6"/> <line class="st6" x1="700.3" y1="72.3" x2="700.3" y2="76.6"/> <line class="st6" x1="703.3" y1="72.3" x2="703.3" y2="78.9"/> <line class="st6" x1="706.3" y1="72.3" x2="706.3" y2="76.6"/> <line class="st6" x1="709.3" y1="72.3" x2="709.3" y2="76.6"/> <line class="st6" x1="712.3" y1="72.3" x2="712.3" y2="76.6"/> <line class="st6" x1="715.3" y1="72.3" x2="715.3" y2="81.6"/> <line class="st6" x1="718.3" y1="72.3" x2="718.3" y2="76.6"/> <line class="st6" x1="721.3" y1="72.3" x2="721.3" y2="76.6"/> <line class="st6" x1="724.3" y1="72.3" x2="724.3" y2="76.6"/> <line class="st6" x1="727.3" y1="72.3" x2="727.3" y2="78.9"/> <line class="st6" x1="730.3" y1="72.3" x2="730.3" y2="76.6"/> <line class="st6" x1="733.3" y1="72.3" x2="733.3" y2="76.6"/> <line class="st6" x1="736.3" y1="72.3" x2="736.3" y2="76.6"/> <line class="st6" x1="739.3" y1="72.3" x2="739.3" y2="81.6"/> <line class="st6" x1="742.3" y1="72.3" x2="742.3" y2="76.6"/> <line class="st6" x1="745.3" y1="72.3" x2="745.3" y2="76.6"/> <line class="st6" x1="748.3" y1="72.3" x2="748.3" y2="76.6"/> <line class="st6" x1="751.3" y1="72.3" x2="751.3" y2="78.9"/> <line class="st6" x1="754.3" y1="72.3" x2="754.3" y2="76.6"/> <line class="st6" x1="757.3" y1="72.3" x2="757.3" y2="76.6"/> <line class="st6" x1="760.3" y1="72.3" x2="760.3" y2="76.6"/> <line class="st6" x1="763.3" y1="72.3" x2="763.3" y2="81.6"/> <line class="st6" x1="766.3" y1="72.3" x2="766.3" y2="76.6"/> <line class="st6" x1="769.3" y1="72.3" x2="769.3" y2="76.6"/> <line class="st6" x1="772.3" y1="72.3" x2="772.3" y2="76.6"/> <line class="st6" x1="775.3" y1="72.3" x2="775.3" y2="78.9"/> <line class="st6" x1="778.3" y1="72.3" x2="778.3" y2="76.6"/> <line class="st6" x1="781.3" y1="72.3" x2="781.3" y2="76.6"/> <line class="st6" x1="784.3" y1="72.3" x2="784.3" y2="76.6"/> <line class="st6" x1="787.3" y1="72.3" x2="787.3" y2="81.6"/> <line class="st6" x1="790.3" y1="72.3" x2="790.3" y2="76.6"/> <line class="st6" x1="793.3" y1="72.3" x2="793.3" y2="76.6"/> <line class="st6" x1="796.3" y1="72.3" x2="796.3" y2="76.6"/> <line class="st6" x1="799.3" y1="72.3" x2="799.3" y2="78.9"/> <line class="st6" x1="802.3" y1="72.3" x2="802.3" y2="76.6"/> <line class="st6" x1="805.3" y1="72.3" x2="805.3" y2="76.6"/> <line class="st6" x1="808.3" y1="72.3" x2="808.3" y2="76.6"/> <line class="st6" x1="812.3" y1="72.3" x2="812.3" y2="81.6"/> <line class="st6" x1="815.3" y1="72.3" x2="815.3" y2="76.6"/> <line class="st6" x1="818.3" y1="72.3" x2="818.3" y2="76.6"/> <line class="st6" x1="821.3" y1="72.3" x2="821.3" y2="76.6"/> <line class="st6" x1="824.3" y1="72.3" x2="824.3" y2="78.9"/> <line class="st6" x1="827.3" y1="72.3" x2="827.3" y2="76.6"/> <line class="st6" x1="830.3" y1="72.3" x2="830.3" y2="76.6"/> <line class="st6" x1="833.3" y1="72.3" x2="833.3" y2="76.6"/> <line class="st6" x1="836.3" y1="72.3" x2="836.3" y2="81.6"/> <line class="st6" x1="839.3" y1="72.3" x2="839.3" y2="76.6"/> <line class="st6" x1="842.3" y1="72.3" x2="842.3" y2="76.6"/> <line class="st6" x1="845.3" y1="72.3" x2="845.3" y2="76.6"/> <line class="st6" x1="848.3" y1="72.3" x2="848.3" y2="78.9"/> <line class="st6" x1="851.3" y1="72.3" x2="851.3" y2="76.6"/> <line class="st6" x1="854.3" y1="72.3" x2="854.3" y2="76.6"/> <line class="st6" x1="857.3" y1="72.3" x2="857.3" y2="76.6"/> <line class="st6" x1="860.3" y1="72.3" x2="860.3" y2="81.6"/> </g> </g> <g class="st1"> <rect x="569.8" y="18" class="st7" width="265" height="33.4"/> <g> <line class="st6" x1="581.8" y1="18.7" x2="581.8" y2="45.2"/> <line class="st6" x1="584.8" y1="18.7" x2="584.8" y2="31.1"/> <line class="st6" x1="587.8" y1="18.7" x2="587.8" y2="31.1"/> <line class="st6" x1="590.8" y1="18.7" x2="590.8" y2="31.1"/> <line class="st6" x1="593.8" y1="18.7" x2="593.8" y2="37.7"/> <line class="st6" x1="596.8" y1="18.7" x2="596.8" y2="31.1"/> <line class="st6" x1="599.8" y1="18.7" x2="599.8" y2="31.1"/> <line class="st6" x1="602.8" y1="18.7" x2="602.8" y2="31.1"/> <line class="st6" x1="605.8" y1="18.7" x2="605.8" y2="45.2"/> <line class="st6" x1="608.8" y1="18.7" x2="608.8" y2="31.1"/> <line class="st6" x1="611.8" y1="18.7" x2="611.8" y2="31.1"/> <line class="st6" x1="614.8" y1="18.7" x2="614.8" y2="31.1"/> <line class="st6" x1="617.8" y1="18.7" x2="617.8" y2="37.7"/> <line class="st6" x1="620.8" y1="18.7" x2="620.8" y2="31.1"/> <line class="st6" x1="623.8" y1="18.7" x2="623.8" y2="31.1"/> <line class="st6" x1="626.8" y1="18.7" x2="626.8" y2="31.1"/> <line class="st6" x1="629.8" y1="18.7" x2="629.8" y2="45.2"/> <line class="st6" x1="632.8" y1="18.7" x2="632.8" y2="31.1"/> <line class="st6" x1="635.8" y1="18.7" x2="635.8" y2="31.1"/> <line class="st6" x1="638.8" y1="18.7" x2="638.8" y2="31.1"/> <line class="st6" x1="641.8" y1="18.7" x2="641.8" y2="37.7"/> <line class="st6" x1="644.8" y1="18.7" x2="644.8" y2="31.1"/> <line class="st6" x1="647.8" y1="18.7" x2="647.8" y2="31.1"/> <line class="st6" x1="650.8" y1="18.7" x2="650.8" y2="31.1"/> <line class="st6" x1="653.8" y1="18.7" x2="653.8" y2="45.2"/> <line class="st6" x1="656.8" y1="18.7" x2="656.8" y2="31.1"/> <line class="st6" x1="659.8" y1="18.7" x2="659.8" y2="31.1"/> <line class="st6" x1="662.8" y1="18.7" x2="662.8" y2="31.1"/> <line class="st6" x1="665.8" y1="18.7" x2="665.8" y2="37.7"/> <line class="st6" x1="668.8" y1="18.7" x2="668.8" y2="31.1"/> <line class="st6" x1="671.8" y1="18.7" x2="671.8" y2="31.1"/> <line class="st6" x1="674.8" y1="18.7" x2="674.8" y2="31.1"/> <line class="st6" x1="677.8" y1="18.7" x2="677.8" y2="45.2"/> <line class="st6" x1="680.8" y1="18.7" x2="680.8" y2="31.1"/> <line class="st6" x1="683.8" y1="18.7" x2="683.8" y2="31.1"/> <line class="st6" x1="686.8" y1="18.7" x2="686.8" y2="31.1"/> <line class="st6" x1="689.8" y1="18.7" x2="689.8" y2="37.7"/> <line class="st6" x1="692.8" y1="18.7" x2="692.8" y2="31.1"/> <line class="st6" x1="695.8" y1="18.7" x2="695.8" y2="31.1"/> <line class="st6" x1="698.8" y1="18.7" x2="698.8" y2="31.1"/> <line class="st6" x1="701.8" y1="18.7" x2="701.8" y2="45.2"/> <line class="st6" x1="704.8" y1="18.7" x2="704.8" y2="31.1"/> <line class="st6" x1="707.8" y1="18.7" x2="707.8" y2="31.1"/> <line class="st6" x1="710.8" y1="18.7" x2="710.8" y2="31.1"/> <line class="st6" x1="713.8" y1="18.7" x2="713.8" y2="37.7"/> <line class="st6" x1="716.8" y1="18.7" x2="716.8" y2="31.1"/> <line class="st6" x1="719.8" y1="18.7" x2="719.8" y2="31.1"/> <line class="st6" x1="722.8" y1="18.7" x2="722.8" y2="31.1"/> <line class="st6" x1="725.8" y1="18.7" x2="725.8" y2="45.2"/> <line class="st6" x1="728.8" y1="18.7" x2="728.8" y2="31.1"/> <line class="st6" x1="731.8" y1="18.7" x2="731.8" y2="31.1"/> <line class="st6" x1="734.8" y1="18.7" x2="734.8" y2="31.1"/> <line class="st6" x1="737.8" y1="18.7" x2="737.8" y2="37.7"/> <line class="st6" x1="740.8" y1="18.7" x2="740.8" y2="31.1"/> <line class="st6" x1="743.8" y1="18.7" x2="743.8" y2="31.1"/> <line class="st6" x1="746.8" y1="18.7" x2="746.8" y2="31.1"/> <line class="st6" x1="749.8" y1="18.7" x2="749.8" y2="45.2"/> <line class="st6" x1="752.8" y1="18.7" x2="752.8" y2="31.1"/> <line class="st6" x1="755.8" y1="18.7" x2="755.8" y2="31.1"/> <line class="st6" x1="758.8" y1="18.7" x2="758.8" y2="31.1"/> <line class="st6" x1="761.8" y1="18.7" x2="761.8" y2="37.7"/> <line class="st6" x1="764.8" y1="18.7" x2="764.8" y2="31.1"/> <line class="st6" x1="767.8" y1="18.7" x2="767.8" y2="31.1"/> <line class="st6" x1="770.8" y1="18.7" x2="770.8" y2="31.1"/> <line class="st6" x1="774.8" y1="18.7" x2="774.8" y2="45.2"/> <line class="st6" x1="777.8" y1="18.7" x2="777.8" y2="31.1"/> <line class="st6" x1="780.8" y1="18.7" x2="780.8" y2="31.1"/> <line class="st6" x1="783.8" y1="18.7" x2="783.8" y2="31.1"/> <line class="st6" x1="786.8" y1="18.7" x2="786.8" y2="37.7"/> <line class="st6" x1="789.8" y1="18.7" x2="789.8" y2="31.1"/> <line class="st6" x1="792.8" y1="18.7" x2="792.8" y2="31.1"/> <line class="st6" x1="795.8" y1="18.7" x2="795.8" y2="31.1"/> <line class="st6" x1="798.8" y1="18.7" x2="798.8" y2="45.2"/> <line class="st6" x1="801.8" y1="18.7" x2="801.8" y2="31.1"/> <line class="st6" x1="804.8" y1="18.7" x2="804.8" y2="31.1"/> <line class="st6" x1="807.8" y1="18.7" x2="807.8" y2="31.1"/> <line class="st6" x1="810.8" y1="18.7" x2="810.8" y2="37.7"/> <line class="st6" x1="813.8" y1="18.7" x2="813.8" y2="31.1"/> <line class="st6" x1="816.8" y1="18.7" x2="816.8" y2="31.1"/> <line class="st6" x1="819.8" y1="18.7" x2="819.8" y2="31.1"/> <line class="st6" x1="822.8" y1="18.7" x2="822.8" y2="45.2"/> </g> </g> <path class="st8" d="M96.1,569.4h-53c-1.6,0-2.8-1.3-2.8-2.8v-43.3c0-1.6,1.3-2.8,2.8-2.8h53c1.6,0,2.8,1.3,2.8,2.8v43.3 C99,568.1,97.7,569.4,96.1,569.4z"/> <rect x="40.3" y="511.2" class="st9" width="58.7" height="11.4"/> <polygon class="st10" points="40.3,106.4 54.3,58.2 83.3,58.2 99,106.4 "/> <polygon class="st9" points="55.1,58.2 70.1,15.3 84.1,58.2 "/> <rect x="59.7" y="106.4" class="st11" width="19.8" height="404.8"/> <rect x="40.2" y="106.4" class="st12" width="19.8" height="404.8"/> <rect x="79.2" y="106.4" class="st10" width="19.8" height="404.8"/> <g class="st1"> <path class="st13" d="M880,245.7H628.5c-1.6,0-2.8-1.3-2.8-2.8v-21.6c0-1.6,1.3-2.8,2.8-2.8H880c1.6,0,2.8,1.3,2.8,2.8v21.6 C882.8,244.5,881.5,245.7,880,245.7z"/> <g> <line class="st6" x1="634.3" y1="236.4" x2="634.3" y2="245.7"/> <line class="st6" x1="637.3" y1="236.4" x2="637.3" y2="240.8"/> <line class="st6" x1="640.3" y1="236.4" x2="640.3" y2="240.8"/> <line class="st6" x1="643.3" y1="236.4" x2="643.3" y2="240.8"/> <line class="st6" x1="646.3" y1="236.4" x2="646.3" y2="243.1"/> <line class="st6" x1="649.3" y1="236.4" x2="649.3" y2="240.8"/> <line class="st6" x1="652.3" y1="236.4" x2="652.3" y2="240.8"/> <line class="st6" x1="655.3" y1="236.4" x2="655.3" y2="240.8"/> <line class="st6" x1="658.3" y1="236.4" x2="658.3" y2="245.7"/> <line class="st6" x1="661.3" y1="236.4" x2="661.3" y2="240.8"/> <line class="st6" x1="664.3" y1="236.4" x2="664.3" y2="240.8"/> <line class="st6" x1="667.3" y1="236.4" x2="667.3" y2="240.8"/> <line class="st6" x1="670.3" y1="236.4" x2="670.3" y2="243.1"/> <line class="st6" x1="673.3" y1="236.4" x2="673.3" y2="240.8"/> <line class="st6" x1="676.3" y1="236.4" x2="676.3" y2="240.8"/> <line class="st6" x1="679.3" y1="236.4" x2="679.3" y2="240.8"/> <line class="st6" x1="682.3" y1="236.4" x2="682.3" y2="245.7"/> <line class="st6" x1="685.3" y1="236.4" x2="685.3" y2="240.8"/> <line class="st6" x1="688.3" y1="236.4" x2="688.3" y2="240.8"/> <line class="st6" x1="691.3" y1="236.4" x2="691.3" y2="240.8"/> <line class="st6" x1="694.3" y1="236.4" x2="694.3" y2="243.1"/> <line class="st6" x1="697.3" y1="236.4" x2="697.3" y2="240.8"/> <line class="st6" x1="700.3" y1="236.4" x2="700.3" y2="240.8"/> <line class="st6" x1="703.3" y1="236.4" x2="703.3" y2="240.8"/> <line class="st6" x1="706.3" y1="236.4" x2="706.3" y2="245.7"/> <line class="st6" x1="709.3" y1="236.4" x2="709.3" y2="240.8"/> <line class="st6" x1="712.3" y1="236.4" x2="712.3" y2="240.8"/> <line class="st6" x1="715.3" y1="236.4" x2="715.3" y2="240.8"/> <line class="st6" x1="718.3" y1="236.4" x2="718.3" y2="243.1"/> <line class="st6" x1="721.3" y1="236.4" x2="721.3" y2="240.8"/> <line class="st6" x1="724.3" y1="236.4" x2="724.3" y2="240.8"/> <line class="st6" x1="727.3" y1="236.4" x2="727.3" y2="240.8"/> <line class="st6" x1="730.3" y1="236.4" x2="730.3" y2="245.7"/> <line class="st6" x1="733.3" y1="236.4" x2="733.3" y2="240.8"/> <line class="st6" x1="736.3" y1="236.4" x2="736.3" y2="240.8"/> <line class="st6" x1="739.3" y1="236.4" x2="739.3" y2="240.8"/> <line class="st6" x1="742.3" y1="236.4" x2="742.3" y2="243.1"/> <line class="st6" x1="745.3" y1="236.4" x2="745.3" y2="240.8"/> <line class="st6" x1="748.3" y1="236.4" x2="748.3" y2="240.8"/> <line class="st6" x1="751.3" y1="236.4" x2="751.3" y2="240.8"/> <line class="st6" x1="754.3" y1="236.4" x2="754.3" y2="245.7"/> <line class="st6" x1="757.3" y1="236.4" x2="757.3" y2="240.8"/> <line class="st6" x1="760.3" y1="236.4" x2="760.3" y2="240.8"/> <line class="st6" x1="763.3" y1="236.4" x2="763.3" y2="240.8"/> <line class="st6" x1="766.3" y1="236.4" x2="766.3" y2="243.1"/> <line class="st6" x1="769.3" y1="236.4" x2="769.3" y2="240.8"/> <line class="st6" x1="772.3" y1="236.4" x2="772.3" y2="240.8"/> <line class="st6" x1="775.3" y1="236.4" x2="775.3" y2="240.8"/> <line class="st6" x1="778.3" y1="236.4" x2="778.3" y2="245.7"/> <line class="st6" x1="781.3" y1="236.4" x2="781.3" y2="240.8"/> <line class="st6" x1="784.3" y1="236.4" x2="784.3" y2="240.8"/> <line class="st6" x1="787.3" y1="236.4" x2="787.3" y2="240.8"/> <line class="st6" x1="790.3" y1="236.4" x2="790.3" y2="243.1"/> <line class="st6" x1="793.3" y1="236.4" x2="793.3" y2="240.8"/> <line class="st6" x1="796.3" y1="236.4" x2="796.3" y2="240.8"/> <line class="st6" x1="799.3" y1="236.4" x2="799.3" y2="240.8"/> <line class="st6" x1="802.3" y1="236.4" x2="802.3" y2="245.7"/> <line class="st6" x1="805.3" y1="236.4" x2="805.3" y2="240.8"/> <line class="st6" x1="808.3" y1="236.4" x2="808.3" y2="240.8"/> <line class="st6" x1="811.3" y1="236.4" x2="811.3" y2="240.8"/> <line class="st6" x1="814.3" y1="236.4" x2="814.3" y2="243.1"/> <line class="st6" x1="817.3" y1="236.4" x2="817.3" y2="240.8"/> <line class="st6" x1="820.3" y1="236.4" x2="820.3" y2="240.8"/> <line class="st6" x1="823.3" y1="236.4" x2="823.3" y2="240.8"/> <line class="st6" x1="827.3" y1="236.4" x2="827.3" y2="245.7"/> <line class="st6" x1="830.3" y1="236.4" x2="830.3" y2="240.8"/> <line class="st6" x1="833.3" y1="236.4" x2="833.3" y2="240.8"/> <line class="st6" x1="836.3" y1="236.4" x2="836.3" y2="240.8"/> <line class="st6" x1="839.3" y1="236.4" x2="839.3" y2="243.1"/> <line class="st6" x1="842.3" y1="236.4" x2="842.3" y2="240.8"/> <line class="st6" x1="845.3" y1="236.4" x2="845.3" y2="240.8"/> <line class="st6" x1="848.3" y1="236.4" x2="848.3" y2="240.8"/> <line class="st6" x1="851.3" y1="236.4" x2="851.3" y2="245.7"/> <line class="st6" x1="854.3" y1="236.4" x2="854.3" y2="240.8"/> <line class="st6" x1="857.3" y1="236.4" x2="857.3" y2="240.8"/> <line class="st6" x1="860.3" y1="236.4" x2="860.3" y2="240.8"/> <line class="st6" x1="863.3" y1="236.4" x2="863.3" y2="243.1"/> <line class="st6" x1="866.3" y1="236.4" x2="866.3" y2="240.8"/> <line class="st6" x1="869.3" y1="236.4" x2="869.3" y2="240.8"/> <line class="st6" x1="872.3" y1="236.4" x2="872.3" y2="240.8"/> <line class="st6" x1="875.3" y1="236.4" x2="875.3" y2="245.7"/> </g> <path class="st13" d="M875.3,223.7h-242c0-66.8,54.2-121,121-121S875.3,156.8,875.3,223.7z"/> <path class="st5" d="M846.4,217.2H662.2c0-50.9,41.2-92.1,92.1-92.1S846.4,166.4,846.4,217.2z"/> </g> <polygon class="st8" points="370.6,537.8 399.1,537.8 399.1,589.8 370.1,589.8 "/> <rect x="356.2" y="125.9" class="st14" width="58.7" height="401.8"/> <polygon class="st8" points="356.2,125.9 370.1,64.2 399.1,64.2 414.8,125.9 "/> <polygon class="st15" points="375.6,64.2 385.1,18.3 393.1,64.2 "/> <path class="st14" d="M409.2,546.3h-47.3c-3.1,0-5.7-2.5-5.7-5.7V529c0-3.1,2.5-5.7,5.7-5.7h47.3c3.1,0,5.7,2.5,5.7,5.7v11.7 C414.8,543.8,412.3,546.3,409.2,546.3z"/> </g> <g id="Ebene_2" class="st0"> <g class="st1"> <path class="st7" d="M158.3,435.5H58.7c-3.1,0-5.7-2.5-5.7-5.7V48.2c0-3.1,2.5-5.7,5.7-5.7h99.7c3.1,0,5.7,2.5,5.7,5.7v381.6 C164,432.9,161.4,435.5,158.3,435.5z"/> <line class="st16" x1="53" y1="52" x2="164" y2="52"/> <circle class="st17" cx="107.8" cy="106.3" r="41.3"/> <rect x="53" y="339.5" class="st18" width="111" height="3.5"/> <rect x="53" y="347.5" class="st18" width="111" height="3.5"/> <rect x="53" y="355.5" class="st18" width="111" height="3.5"/> <rect x="53" y="363.5" class="st18" width="111" height="3.5"/> <rect x="53" y="371.5" class="st18" width="111" height="3.5"/> <rect x="53" y="379.5" class="st18" width="111" height="3.5"/> <rect x="53" y="387.5" class="st18" width="111" height="3.5"/> <rect x="53" y="395.5" class="st18" width="111" height="3.5"/> <line class="st16" x1="53" y1="428" x2="164" y2="428"/> </g> <g class="st1"> <path class="st19" d="M226.3,433.5h-56.6c-3.1,0-5.7-2.5-5.7-5.7V116.4c0-3.1,2.5-5.7,5.7-5.7h56.6c3.1,0,5.7,2.5,5.7,5.7v311.4 C232,431,229.4,433.5,226.3,433.5z"/> <line class="st20" x1="164" y1="120.3" x2="232" y2="120.3"/> <line class="st20" x1="164" y1="425.5" x2="232" y2="425.5"/> <rect x="172" y="142.3" class="st21" width="52" height="73.5"/> </g> <g class="st1"> <path class="st22" d="M384.3,433.5h-97.7c-3.1,0-5.7-2.5-5.7-5.7V70.7c0-3.1,2.5-5.7,5.7-5.7h97.7c3.1,0,5.7,2.5,5.7,5.7v357.2 C390,431,387.5,433.5,384.3,433.5z"/> <line class="st23" x1="281" y1="75.9" x2="390" y2="75.9"/> <line class="st23" x1="281" y1="424.4" x2="390" y2="424.4"/> <path class="st24" d="M356.3,184.9h-44.7c-12.5,0-22.7-10.2-22.7-22.7v-38.6c0-12.5,10.2-22.7,22.7-22.7h44.7 c12.5,0,22.7,10.2,22.7,22.7v38.6C379,174.8,368.8,184.9,356.3,184.9z"/> </g> <g class="st1"> <path class="st25" d="M791,435.5h-39.7c-3.1,0-5.7-2.5-5.7-5.7V88.7c0-3.1,2.5-5.7,5.7-5.7H791c3.1,0,5.7,2.5,5.7,5.7v341.1 C796.7,432.9,794.1,435.5,791,435.5z"/> <line class="st20" x1="745.6" y1="122.2" x2="796.7" y2="122.2"/> <line class="st20" x1="745.6" y1="427.5" x2="796.7" y2="427.5"/> <rect x="751.6" y="144.2" class="st26" width="39" height="270.8"/> </g> <g class="st1"> <path class="st27" d="M700.3,433.5h-97.7c-3.1,0-5.7-2.5-5.7-5.7V81.5c0-3.1,2.5-5.7,5.7-5.7h97.7c3.1,0,5.7,2.5,5.7,5.7v346.3 C706,431,703.5,433.5,700.3,433.5z"/> <line class="st28" x1="597" y1="94.1" x2="706" y2="94.1"/> <line class="st29" x1="597" y1="425.6" x2="706" y2="425.6"/> <polygon class="st24" points="695,255.9 605,255.9 650,145.7 650,145.7 "/> </g> <g class="st1"> <path class="st30" d="M557.6,433.5H431.9c-3.1,0-5.7-2.5-5.7-5.7V48.2c0-3.1,2.5-5.7,5.7-5.7h125.7c3.1,0,5.7,2.5,5.7,5.7v379.7 C563.3,431,560.7,433.5,557.6,433.5z"/> <line class="st31" x1="426.2" y1="65" x2="563.3" y2="65"/> <line class="st31" x1="426.2" y1="425.6" x2="563.3" y2="425.6"/> <circle class="st32" cx="494.7" cy="183.2" r="46.5"/> </g> </g> <g id="Ebene_3" class="st0"> <g class="st1"> <g> <g> <defs> <rect id="SVGID_1_" x="37.1" y="160.1" width="111" height="393"/> </defs> <clipPath id="SVGID_2_"> <use xlink:href="#SVGID_1_" style="overflow:visible;"/> </clipPath> <g class="st33"> <defs> <rect id="SVGID_3_" x="37.1" y="160.1" width="111" height="393"/> </defs> <clipPath id="SVGID_4_"> <use xlink:href="#SVGID_3_" style="overflow:visible;"/> </clipPath> <path class="st34" d="M142.4,553.1H42.8c-3.1,0-5.7-2.5-5.7-5.7V165.8c0-3.1,2.5-5.7,5.7-5.7h99.7c3.1,0,5.7,2.5,5.7,5.7v381.6 C148.1,550.5,145.6,553.1,142.4,553.1"/> <line class="st35" x1="37.1" y1="169.6" x2="148.1" y2="169.6"/> <path class="st36" d="M133.1,223.9c0,22.8-18.5,41.3-41.3,41.3s-41.2-18.5-41.2-41.3c0-22.8,18.5-41.3,41.2-41.3 S133.1,201.1,133.1,223.9"/> <circle class="st35" cx="91.9" cy="223.9" r="41.3"/> <rect x="37.1" y="457.1" class="st37" width="111" height="3.5"/> <rect x="37.1" y="465.1" class="st37" width="111" height="3.5"/> <rect x="37.1" y="473.1" class="st37" width="111" height="3.5"/> <rect x="37.1" y="481.1" class="st37" width="111" height="3.5"/> <rect x="37.1" y="489.1" class="st37" width="111" height="3.5"/> <rect x="37.1" y="497.1" class="st37" width="111" height="3.5"/> <rect x="37.1" y="505.1" class="st37" width="111" height="3.5"/> <rect x="37.1" y="513.1" class="st37" width="111" height="3.5"/> <line class="st35" x1="37.1" y1="545.6" x2="148.1" y2="545.6"/> </g> </g> </g> <g> <g> <defs> <rect id="SVGID_5_" x="161.6" y="195.4" width="109" height="357.7"/> </defs> <clipPath id="SVGID_6_"> <use xlink:href="#SVGID_5_" style="overflow:visible;"/> </clipPath> <g class="st38"> <defs> <rect id="SVGID_7_" x="161.6" y="195.4" width="109" height="357.7"/> </defs> <clipPath id="SVGID_8_"> <use xlink:href="#SVGID_7_" style="overflow:visible;"/> </clipPath> <path class="st39" d="M265,553.1h-97.7c-3.1,0-5.7-2.5-5.7-5.7V201.1c0-3.1,2.5-5.7,5.7-5.7H265c3.1,0,5.7,2.5,5.7,5.7v346.3 C270.6,550.5,268.1,553.1,265,553.1"/> <line class="st40" x1="161.6" y1="213.7" x2="270.6" y2="213.7"/> <line class="st41" x1="161.6" y1="545.2" x2="270.6" y2="545.2"/> <polygon class="st42" points="259.6,375.5 169.6,375.5 214.6,265.2 "/> </g> </g> </g> <g> <g> <defs> <rect id="SVGID_9_" x="310.8" y="297.6" width="322.8" height="68"/> </defs> <clipPath id="SVGID_10_"> <use xlink:href="#SVGID_9_" style="overflow:visible;"/> </clipPath> <g class="st43"> <defs> <rect id="SVGID_11_" x="310.8" y="297.6" width="322.8" height="68"/> </defs> <clipPath id="SVGID_12_"> <use xlink:href="#SVGID_11_" style="overflow:visible;"/> </clipPath> <path class="st44" d="M310.8,359.9v-56.6c0-3.1,2.5-5.7,5.7-5.7h311.4c3.1,0,5.7,2.5,5.7,5.7v56.6c0,3.1-2.5,5.7-5.7,5.7H316.4 C313.3,365.6,310.8,363.1,310.8,359.9"/> <line class="st45" x1="624" y1="297.6" x2="624" y2="365.6"/> <line class="st45" x1="318.8" y1="297.6" x2="318.8" y2="365.6"/> <rect x="528.5" y="305.6" class="st46" width="73.5" height="52"/> </g> </g> </g> <g> <g> <defs> <rect id="SVGID_13_" x="670.7" y="184.6" width="109" height="368.5"/> </defs> <clipPath id="SVGID_14_"> <use xlink:href="#SVGID_13_" style="overflow:visible;"/> </clipPath> <g class="st47"> <defs> <rect id="SVGID_15_" x="670.7" y="184.6" width="109" height="368.5"/> </defs> <clipPath id="SVGID_16_"> <use xlink:href="#SVGID_15_" style="overflow:visible;"/> </clipPath> <path class="st48" d="M774,553.1h-97.7c-3.1,0-5.7-2.5-5.7-5.7V190.2c0-3.1,2.5-5.7,5.7-5.7H774c3.1,0,5.7,2.5,5.7,5.7v357.2 C779.7,550.5,777.2,553.1,774,553.1"/> <line class="st49" x1="670.7" y1="195.4" x2="779.7" y2="195.4"/> <line class="st49" x1="670.7" y1="543.9" x2="779.7" y2="543.9"/> <path class="st50" d="M746,304.5h-44.7c-12.5,0-22.7-10.2-22.7-22.7v-38.6c0-12.5,10.2-22.7,22.7-22.7H746 c12.5,0,22.7,10.2,22.7,22.7v38.6C768.7,294.3,758.6,304.5,746,304.5"/> </g> </g> </g> <g> <g> <defs> <rect id="SVGID_17_" x="276.6" y="416" width="391" height="137.1"/> </defs> <clipPath id="SVGID_18_"> <use xlink:href="#SVGID_17_" style="overflow:visible;"/> </clipPath> <g class="st51"> <defs> <rect id="SVGID_19_" x="276.6" y="416" width="391" height="137.1"/> </defs> <clipPath id="SVGID_20_"> <use xlink:href="#SVGID_19_" style="overflow:visible;"/> </clipPath> <path class="st52" d="M276.6,547.4V421.7c0-3.1,2.5-5.7,5.7-5.7H662c3.1,0,5.7,2.5,5.7,5.7v125.7c0,3.1-2.5,5.7-5.7,5.7H282.3 C279.2,553.1,276.6,550.5,276.6,547.4"/> <line class="st53" x1="645.2" y1="416" x2="645.2" y2="553.1"/> <line class="st53" x1="284.6" y1="416" x2="284.6" y2="553.1"/> <circle class="st54" cx="527" cy="484.6" r="46.5"/> </g> </g> </g> <g> <g> <defs> <rect id="SVGID_21_" x="288.4" y="365" width="352.5" height="51"/> </defs> <clipPath id="SVGID_22_"> <use xlink:href="#SVGID_21_" style="overflow:visible;"/> </clipPath> <g class="st55"> <defs> <rect id="SVGID_23_" x="288.4" y="365" width="352.5" height="51"/> </defs> <clipPath id="SVGID_24_"> <use xlink:href="#SVGID_23_" style="overflow:visible;"/> </clipPath> <path class="st56" d="M288.4,410.4v-39.7c0-3.1,2.5-5.7,5.7-5.7h341.1c3.1,0,5.7,2.5,5.7,5.7v39.7c0,3.1-2.5,5.7-5.7,5.7H294 C290.9,416,288.4,413.5,288.4,410.4"/> <line class="st57" x1="601.6" y1="365" x2="601.6" y2="416"/> <line class="st57" x1="296.4" y1="365" x2="296.4" y2="416"/> <rect x="308.8" y="371" class="st58" width="270.8" height="39"/> </g> </g> </g> </g> </g> <g id="Ebene_4" class="st0"> <rect x="417" y="391.4" class="st59" width="126" height="66"/> <path class="st60" d="M792.6,459.8H545.9c-1.6,0-2.8-1.3-2.8-2.8V325.8c0-1.6,1.3-2.8,2.8-2.8h246.8c1.6,0,2.8,1.3,2.8,2.8v131.1 C795.5,458.5,794.2,459.8,792.6,459.8z"/> <g class="st1"> <rect x="558.3" y="333.6" class="st61" width="22.4" height="14.4"/> <line class="st62" x1="569.5" y1="333.6" x2="569.5" y2="348"/> </g> <g class="st1"> <rect x="558.3" y="366" class="st61" width="22.4" height="14.4"/> <line class="st62" x1="569.5" y1="366" x2="569.5" y2="380.4"/> </g> <g class="st1"> <rect x="558.3" y="399.9" class="st61" width="22.4" height="14.4"/> <line class="st62" x1="569.5" y1="399.9" x2="569.5" y2="414.3"/> </g> <g class="st1"> <rect x="558.3" y="430.8" class="st61" width="22.4" height="26.5"/> <line class="st62" x1="569.5" y1="430.8" x2="569.5" y2="457.3"/> </g> <g class="st1"> <rect x="595.1" y="333.6" class="st61" width="22.4" height="14.4"/> <line class="st62" x1="606.4" y1="333.6" x2="606.4" y2="348"/> </g> <g class="st1"> <rect x="595.1" y="366" class="st61" width="22.4" height="14.4"/> <line class="st62" x1="606.4" y1="366" x2="606.4" y2="380.4"/> </g> <g class="st1"> <rect x="595.1" y="399.9" class="st61" width="22.4" height="14.4"/> <line class="st62" x1="606.4" y1="399.9" x2="606.4" y2="414.3"/> </g> <g class="st1"> <rect x="595.1" y="430.8" class="st61" width="22.4" height="14.4"/> <line class="st62" x1="606.4" y1="430.8" x2="606.4" y2="445.2"/> </g> <g class="st1"> <rect x="633.5" y="333.6" class="st61" width="22.4" height="14.4"/> <line class="st62" x1="644.7" y1="333.6" x2="644.7" y2="348"/> </g> <g class="st1"> <rect x="633.5" y="366" class="st61" width="22.4" height="14.4"/> <line class="st62" x1="644.7" y1="366" x2="644.7" y2="380.4"/> </g> <g class="st1"> <rect x="633.5" y="399.9" class="st61" width="22.4" height="14.4"/> <line class="st62" x1="644.7" y1="399.9" x2="644.7" y2="414.3"/> </g> <g class="st1"> <rect x="633.5" y="430.8" class="st61" width="22.4" height="14.4"/> <line class="st62" x1="644.7" y1="430.8" x2="644.7" y2="445.2"/> </g> <g class="st1"> <rect x="684.3" y="333.6" class="st61" width="22.4" height="14.4"/> <line class="st62" x1="695.6" y1="333.6" x2="695.6" y2="348"/> </g> <g class="st1"> <rect x="684.3" y="366" class="st61" width="22.4" height="14.4"/> <line class="st62" x1="695.6" y1="366" x2="695.6" y2="380.4"/> </g> <g class="st1"> <rect x="684.3" y="399.9" class="st61" width="22.4" height="14.4"/> <line class="st62" x1="695.6" y1="399.9" x2="695.6" y2="414.3"/> </g> <g class="st1"> <rect x="684.3" y="430.8" class="st61" width="22.4" height="14.4"/> <line class="st62" x1="695.6" y1="430.8" x2="695.6" y2="445.2"/> </g> <g class="st1"> <rect x="721.2" y="333.6" class="st61" width="22.4" height="14.4"/> <line class="st62" x1="732.4" y1="333.6" x2="732.4" y2="348"/> </g> <g class="st1"> <rect x="721.2" y="366" class="st61" width="22.4" height="14.4"/> <line class="st62" x1="732.4" y1="366" x2="732.4" y2="380.4"/> </g> <g class="st1"> <rect x="721.2" y="399.9" class="st61" width="22.4" height="14.4"/> <line class="st62" x1="732.4" y1="399.9" x2="732.4" y2="414.3"/> </g> <g class="st1"> <rect x="721.2" y="430.8" class="st61" width="22.4" height="14.4"/> <line class="st62" x1="732.4" y1="430.8" x2="732.4" y2="445.2"/> </g> <g class="st1"> <rect x="759.6" y="333.6" class="st61" width="22.4" height="14.4"/> <line class="st62" x1="770.8" y1="333.6" x2="770.8" y2="348"/> </g> <g class="st1"> <rect x="759.6" y="366" class="st61" width="22.4" height="14.4"/> <line class="st62" x1="770.8" y1="366" x2="770.8" y2="380.4"/> </g> <g class="st1"> <rect x="759.6" y="399.9" class="st61" width="22.4" height="14.4"/> <line class="st62" x1="770.8" y1="399.9" x2="770.8" y2="414.3"/> </g> <g class="st1"> <rect x="759.6" y="430.8" class="st61" width="22.4" height="14.4"/> <line class="st62" x1="770.8" y1="430.8" x2="770.8" y2="445.2"/> </g> <rect x="543" y="457.4" class="st63" width="252.4" height="13.1"/> <g class="st1"> <rect x="595.1" y="459.8" class="st61" width="22.4" height="8.8"/> <line class="st62" x1="606.4" y1="459.8" x2="606.4" y2="468.6"/> </g> <g class="st1"> <rect x="684.3" y="459.8" class="st61" width="22.4" height="8.8"/> <line class="st62" x1="695.6" y1="459.8" x2="695.6" y2="468.6"/> </g> <g class="st1"> <rect x="721.2" y="459.8" class="st61" width="22.4" height="8.8"/> <line class="st62" x1="732.4" y1="459.8" x2="732.4" y2="468.6"/> </g> <g class="st1"> <rect x="633.5" y="459.8" class="st61" width="22.4" height="8.8"/> <line class="st62" x1="644.7" y1="459.8" x2="644.7" y2="468.6"/> </g> <g class="st1"> <rect x="759.6" y="459.8" class="st61" width="22.4" height="8.8"/> <line class="st62" x1="770.8" y1="459.8" x2="770.8" y2="468.6"/> </g> <g class="st1"> <rect x="432.2" y="399.9" class="st61" width="22.4" height="14.4"/> <line class="st62" x1="443.4" y1="399.9" x2="443.4" y2="414.3"/> </g> <g class="st1"> <rect x="469.1" y="399.9" class="st61" width="22.4" height="14.4"/> <line class="st62" x1="480.3" y1="399.9" x2="480.3" y2="414.3"/> </g> <g class="st1"> <rect x="507.5" y="399.9" class="st61" width="22.4" height="14.4"/> <line class="st62" x1="518.7" y1="399.9" x2="518.7" y2="414.3"/> </g> <g class="st1"> <rect x="432.2" y="430.8" class="st61" width="22.4" height="14.4"/> <line class="st62" x1="443.4" y1="430.8" x2="443.4" y2="445.2"/> </g> <g class="st1"> <rect x="469.1" y="430.8" class="st61" width="22.4" height="14.4"/> <line class="st62" x1="480.3" y1="430.8" x2="480.3" y2="445.2"/> </g> <g class="st1"> <rect x="507.5" y="430.8" class="st61" width="22.4" height="26.6"/> <line class="st62" x1="518.7" y1="430.8" x2="518.7" y2="457.4"/> </g> <rect x="417" y="457.4" class="st63" width="126" height="13.1"/> <g class="st1"> <rect x="496.8" y="466.9" class="st64" width="43.7" height="3.7"/> <rect x="496.8" y="466.3" class="st13" width="43.7" height="0.8"/> <rect x="496.8" y="462.4" class="st64" width="43.7" height="3.7"/> <rect x="496.8" y="461.8" class="st13" width="43.7" height="0.8"/> <rect x="496.8" y="457.9" class="st64" width="43.7" height="3.7"/> <rect x="496.8" y="457.3" class="st13" width="43.7" height="0.8"/> </g> <g class="st1"> <rect x="547.7" y="466.9" class="st64" width="43.7" height="3.7"/> <rect x="547.7" y="466.3" class="st13" width="43.7" height="0.8"/> <rect x="547.7" y="462.4" class="st64" width="43.7" height="3.7"/> <rect x="547.7" y="461.8" class="st13" width="43.7" height="0.8"/> <rect x="547.7" y="457.9" class="st64" width="43.7" height="3.7"/> <rect x="547.7" y="457.3" class="st13" width="43.7" height="0.8"/> </g> </g> <g id="Rakete"> <g> <path class="st65" d="M239.3,395.5c0,0-105,79.5-63.9,191.5l92.7-82.9L239.3,395.5z"/> <path class="st65" d="M432.2,391.4c0,0,106.4,83.6,65.3,195.6l-94-87"/> <path class="st66" d="M262.8,129.2c0,0-54.3,162.2-31.7,262.2s37,120.6,37,120.6s34.9-16.4,70.7-12.8l-0.2-370H262.8z"/> <path class="st25" d="M414.4,129.2c0,0,54.3,162.2,31.7,262.2c-22.6,100-37,120.6-37,120.6s-29.2-15.8-69.3-12.8l-1.2-370H414.4z"/> <path class="st67" d="M262.8,129.2c0,0,63.2-121.2,76-121.2c1.9,0-0.2,121.2-0.2,121.2H262.8"/> <path class="st68" d="M414.4,129.2c0,0-62.8-121.2-75.6-121.2c-1.9,0-0.8,121.2-0.8,121.2h75.8"/> <polygon class="st67" points="354.4,506.5 322.5,506.5 338.8,400.7 338.8,400.7 "/> <polygon class="st67" points="354.4,506.5 322.5,506.5 338.8,587 338.8,587 "/> <circle class="st69" cx="338.9" cy="209.6" r="43.9"/> <circle class="st70" cx="338.9" cy="209.6" r="33.3"/> </g> </g> </svg>