<?xml version='1.0' encoding='utf-8'?>
<svg xmlns="http://www.w3.org/2000/svg" enable-background="new 0 0 73.9 49.35" version="1.1" viewBox="0 0 73.9 49.35">
<g clip-rule="evenodd" fill-rule="evenodd">
	<path d="m68.7 7c0-0.1-0.066-0.333-0.2-0.7-0.167-0.367-0.25-0.65-0.25-0.85v-0.1c0.733 0.566 1.467 1.367 2.2 2.4l-1.75-0.75zm-3.6 3.2c-0.5 1.133-1.017 2-1.55 2.6-0.967 1.133-2.25 1.383-3.85 0.75h-0.3c1.3 0.467 4.066 0.733 8.3 0.8 0.233 0.933 0.35 1.8 0.35 2.6 0 0.933-0.133 2.517-0.399 4.75l-2.7-1.35c0.399 3.767-0.417 6.95-2.45 9.55-1.934 2.466-4.517 3.899-7.75 4.3-1.8 0.233-3.167 1.1-4.1 2.6-0.801 1.3-2.917 1.95-6.351 1.95-2.666 0-4.684-0.233-6.05-0.7 0.134-0.234 0.75-0.95 1.85-2.15 0.934-0.967 1.4-1.817 1.4-2.551-1.3 0.334-2.717 1.017-4.25 2.051-1.267 0.866-3.283 1.5-6.05 1.899 0.767 0.601 1.483 1.15 2.15 1.65 0.333 0.3 0.5 0.649 0.5 1.05 0 1.467-0.9 2.483-2.7 3.05-2.433 0.767-4.333 2.217-5.7 4.351l-4.2 1.399c0.533-1.333 1.867-4.283 4-8.85 0.867-1.834 1.3-3.617 1.3-5.351 0-0.399-0.117-0.933-0.35-1.6-0.267-0.667-0.45-1.116-0.55-1.35 0.333 0.3 1 1.783 2 4.449l0.4 0.5c0.833-1.199 2.817-3.366 5.95-6.5 2.233-2.267 3.533-4.316 3.9-6.149l0.199-0.2c0.867-1 1.884-2.133 3.051-3.4 0.733-0.934 1-1.934 0.8-3 0.467 0.9 2.066 4.7 4.8 11.4l0.3 0.45c0.066-0.4 0.101-0.934 0.101-1.601 0-3.766-0.317-6.85-0.95-9.25-0.667-2.7-1.8-4.9-3.4-6.6l-1.651 0.053 0.05 1.6 0.6 2.8c-1.6-2.767-2.6-4.367-3-4.8-1.399-0.967-2.85-1.7-4.35-2.2l-1.75-0.35 6.3-0.1c3.5 0 6.25 0.517 8.25 1.55 0.5 0.367 1.017 0.883 1.55 1.55l-0.75-0.05v12.5c0.434 1.233 0.851 2.75 1.25 4.55 0.367 1.667 0.55 2.767 0.55 3.301v0.6c2.567 0.167 4.267-0.434 5.101-1.8 0.399-0.634 0.767-2.184 1.1-4.65l0.7 0.601c0.566 0.433 1.116 0.783 1.65 1.05 0.633-1.167 1.033-2.3 1.199-3.4 0.067-0.466 0.101-1.216 0.101-2.25l-0.15-3.45c-1.934 0.667-3.233 1.283-3.899 1.85 0.267-0.667 0.833-1.333 1.699-2 0.634-0.467 0.95-1.284 0.95-2.45-0.967-2.033-1.517-3.3-1.649-3.8v-0.152c0.733-0.033 2.149-0.3 4.25-0.8 2.198-0.533 3.598-0.967 4.198-1.3zm-55.7 23.3c0.233-0.1 0.95-0.533 2.15-1.3 0.833-0.5 1.95-0.884 3.35-1.15-0.367 2.9-0.717 5.667-1.05 8.3-0.2 1.4-0.583 3.034-1.15 4.9-0.567-0.4-1.284-1.866-2.15-4.4-0.933-2.734-1.317-4.85-1.15-6.35z" fill="#7C7367"/>
	<path d="m0.75 31.35l0.05-0.4h0.05c-0.033 0.133-0.067 0.267-0.1 0.4zm0 0.1c0.033-0.167 0.083-0.334 0.15-0.5l1.5 0.2 1 0.5c1.567 1.233 2.9 2.966 4 5.199 1.133 2.4 1.7 4.784 1.7 7.15 0 0.434-0.067 0.684-0.2 0.75-0.066 0.033-0.15 0.017-0.25-0.05-0.1-0.033-0.217-0.101-0.35-0.2-0.733-0.5-2.066-1.667-4-3.5-2-1.934-3.167-3.167-3.5-3.7l-0.2-0.2-0.6-2 0.4-2.55c0-0.133 0.033-0.25 0.1-0.35 0-0.134 0.033-0.25 0.1-0.351 0.033-0.1 0.066-0.216 0.1-0.35 0-0.031 0.017-0.048 0.05-0.048zm5.5-11.75c0.067 0.233 0.283 0.383 0.65 0.45 1.333-0.133 2.217-0.417 2.65-0.85l-3-0.45-0.3 0.85zm11.55-8.65c-0.633-0.267-1.4-0.4-2.3-0.4s-1.65 0.133-2.25 0.4c-0.633 0.267-0.95 0.583-0.95 0.95s0.317 0.683 0.95 0.95c0.6 0.267 1.35 0.4 2.25 0.4s1.667-0.133 2.3-0.4c0.6-0.267 0.9-0.583 0.9-0.95s-0.3-0.683-0.9-0.95zm21 0.35c-0.399 0.533-1.133 2.833-2.2 6.9-0.866 3.267-2.683 5.9-5.45 7.9-1.7 1.233-3.933 2.083-6.7 2.55-2.434 0.434-4.9 0.533-7.4 0.3-2-0.2-3.917 0.134-5.75 1-1.966 0.967-3.2 1.45-3.7 1.45-0.3 0-1.184-0.333-2.65-1-1.467-0.7-2.517-1.316-3.15-1.85 0.333-0.834 0.733-1.801 1.2-2.9 1.967-4.7 3.667-7.833 5.1-9.4 1.233-1.367 2.533-3.383 3.9-6.05 1.267-2.533 2.133-4.017 2.6-4.45 0.767-0.667 1.733-0.95 2.9-0.85 2.9 0.2 5.4 0.25 7.5 0.15 1.167-0.033 4.183-0.917 9.05-2.65 4.7-1.667 8.733-2.5 12.1-2.5 1.866 0 5.666 0.7 11.399 2.1 5.8 1.4 9.367 2.517 10.7 3.35 0 0.2 0.083 0.483 0.25 0.85 0.134 0.367 0.2 0.6 0.2 0.7-0.134 0.2-0.483 0.617-1.05 1.25-0.534 0.6-0.9 0.967-1.101 1.1-1.767 0.4-3.383 0.85-4.85 1.35-0.667 0.233-1.65 0.35-2.95 0.35-5.4-0.367-9.233-0.617-11.5-0.75-2-1.033-4.75-1.55-8.25-1.55l-6.3 0.1 1.75 0.35c1.502 0.5 2.952 1.233 4.352 2.2zm22.1-6.45c0-0.4-0.034-0.633-0.101-0.7l-0.149 0.05v1.25l-15 0.1c0.5 0.233 1.517 0.467 3.05 0.7 2.066 0.333 4.316 0.5 6.75 0.5 3.633 0 5.45-0.633 5.45-1.9zm-39.2 13.6l-0.4-3.4c-3.367 1.033-5.517 1.883-6.45 2.55-0.167 0.1-0.633 0.683-1.4 1.75 0.433 0.633 0.867 1.083 1.3 1.35 0.6 0.367 1.333 0.55 2.2 0.55 3.167 0 4.75-0.933 4.75-2.8zm0.45 2.4l2.25 0.05c0.6 0 1.45-0.133 2.55-0.4 1.167-0.267 2.05-0.567 2.65-0.9l-7.45 1.25zm-1.65-9.75c0 0.4 0.217 0.75 0.65 1.05 0.4 0.3 0.883 0.45 1.45 0.45 0.566 0 1.066-0.15 1.5-0.45 0.4-0.3 0.6-0.65 0.6-1.05s-0.2-0.75-0.6-1.05c-0.434-0.3-0.934-0.45-1.5-0.45-0.567 0-1.05 0.15-1.45 0.45-0.433 0.3-0.65 0.65-0.65 1.05zm-3.05 19.8c0.2-0.033 0.367-0.033 0.5 0h0.65c0.1 0.267 0.2 0.533 0.3 0.8 2.5 6.467 3.167 10.45 2 11.95-1 1.3-1.967 1.95-2.9 1.95-1 0-2.1-0.101-3.3-0.3 0.066-0.233 0.05-1.5-0.05-3.801-0.1-2.366 0.184-4.683 0.85-6.949 0.6-1.9 1.25-3.117 1.95-3.65z" fill="#B3AA9E"/>
	<path d="m0.75 31.45v-0.1c0.033-0.133 0.067-0.267 0.1-0.399h0.05c-0.067 0.165-0.117 0.332-0.15 0.499zm38.05-20.05c0.4 0.434 1.4 2.033 3 4.8l0.15 1.15c0.2 1.066-0.066 2.066-0.8 3-1.167 1.267-2.184 2.4-3.051 3.4l-0.199 0.2-0.25 0.25c-2.4 1.7-4.2 2.95-5.4 3.75-2.133 1.434-4.5 2.533-7.1 3.3-0.367 0.033-1.4 0.017-3.1-0.05-1.2-0.033-2.133-0.084-2.8-0.15-0.267 0-0.483-0.017-0.65-0.05h-0.65c-0.133-0.033-0.3-0.033-0.5 0-0.567 0-1.417 0.017-2.55 0.05-1.4 0.267-2.517 0.65-3.35 1.15-1.2 0.767-1.917 1.2-2.15 1.3-0.233 0-1.25-0.283-3.05-0.85-1.667-0.534-2.65-0.867-2.95-1l-1-0.5-1.4-0.75c0.3-1.134 0.5-1.784 0.6-1.95l0.2 0.2c0.633 0.533 1.684 1.149 3.15 1.85 1.466 0.667 2.35 1 2.65 1 0.5 0 1.733-0.483 3.7-1.45 1.833-0.866 3.75-1.2 5.75-1 2.5 0.233 4.967 0.134 7.4-0.3 2.767-0.467 5-1.316 6.7-2.55 2.767-2 4.583-4.633 5.45-7.9 1.067-4.067 1.8-6.367 2.2-6.9zm-21-0.35c0.6 0.267 0.9 0.583 0.9 0.95s-0.3 0.683-0.9 0.95c-0.633 0.267-1.4 0.4-2.3 0.4s-1.65-0.133-2.25-0.4c-0.633-0.267-0.95-0.583-0.95-0.95s0.317-0.683 0.95-0.95c0.6-0.267 1.35-0.4 2.25-0.4s1.667 0.133 2.3 0.4zm-11.55 8.65l0.3-0.85 3 0.45c-0.433 0.434-1.316 0.717-2.65 0.85-0.367-0.067-0.583-0.217-0.65-0.45zm54.65-14.75c0 1.267-1.817 1.9-5.45 1.9-2.434 0-4.684-0.167-6.75-0.5-1.533-0.233-2.55-0.467-3.05-0.7l15-0.1v-1.25l0.15-0.05c0.066 0.067 0.1 0.3 0.1 0.7zm-4.25 7.5c-1.667 0.133-4.284-0.067-7.851-0.6-0.533-0.667-1.05-1.184-1.55-1.55 2.267 0.133 6.1 0.383 11.5 0.75 1.3 0 2.283-0.117 2.95-0.35 1.467-0.5 3.083-0.95 4.85-1.35l-1.449 0.85c-0.6 0.333-2 0.767-4.199 1.3-2.101 0.5-3.517 0.767-4.25 0.8v0.15zm-36.15-1.25c0-0.4 0.217-0.75 0.65-1.05 0.4-0.3 0.883-0.45 1.45-0.45 0.566 0 1.066 0.15 1.5 0.45 0.4 0.3 0.6 0.65 0.6 1.05s-0.2 0.75-0.6 1.05c-0.434 0.3-0.934 0.45-1.5 0.45-0.567 0-1.05-0.15-1.45-0.45-0.433-0.3-0.65-0.65-0.65-1.05zm1.65 9.75l7.45-1.25c-0.6 0.333-1.483 0.633-2.65 0.9-1.1 0.267-1.95 0.4-2.55 0.4l-2.25-0.05zm-0.45-2.4c0 1.867-1.583 2.8-4.75 2.8-0.867 0-1.6-0.184-2.2-0.55-0.433-0.267-0.867-0.716-1.3-1.35 0.767-1.067 1.233-1.65 1.4-1.75 0.933-0.667 3.083-1.517 6.45-2.55l0.4 3.4z" fill="#D2C8BA"/>
	<path d="m31.55 45.35l-6.1 2.051c1.367-2.134 3.267-3.584 5.7-4.351 1.8-0.566 2.7-1.583 2.7-3.05 0-0.4-0.167-0.75-0.5-1.05-0.667-0.5-1.383-1.05-2.15-1.65 2.767-0.399 4.783-1.033 6.05-1.899 1.533-1.034 2.95-1.717 4.25-2.051 0 0.733-0.467 1.584-1.4 2.551-1.1 1.199-1.716 1.916-1.85 2.149 1.366 0.467 3.384 0.7 6.05 0.7 3.434 0 5.55-0.65 6.351-1.95 0.933-1.5 2.3-2.366 4.1-2.6 3.233-0.4 5.816-1.834 7.75-4.3 2.033-2.601 2.85-5.784 2.45-9.55l2.7 1.35c0.267-2.233 0.399-3.817 0.399-4.75 0-0.8-0.116-1.667-0.35-2.6-4.233-0.067-7-0.333-8.3-0.8h0.3c1.6 0.633 2.883 0.383 3.85-0.75 0.533-0.6 1.05-1.466 1.55-2.6l1.45-0.85c0.2-0.133 0.566-0.5 1.101-1.1 0.566-0.633 0.915-1.05 1.049-1.25l1.75 0.75c0.533 0.767 1.217 1.917 2.05 3.45l0.8 2.3 0.3 1.45c0.2 1.066 0.301 1.8 0.301 2.2 0 2-1.217 6.033-3.65 12.1-0.267 0.733-1.316 2.066-3.15 4-1.933 2.066-3.416 3.35-4.449 3.85-2.334 1.167-4.967 2.067-7.9 2.7-3 0.566-5.033 0.95-6.1 1.15l-17 4.35c-0.035 0-0.069 0.016-0.102 0.05zm24.5-19.05c-0.866-1.867-1.3-2.816-1.3-2.85 0-0.934 0.3-1.85 0.9-2.75 0.666-0.567 1.966-1.184 3.899-1.85l0.15 3.45c0 1.034-0.033 1.784-0.101 2.25-0.166 1.101-0.566 2.233-1.199 3.4-0.534-0.267-1.084-0.617-1.65-1.05l-0.699-0.6zm-14.1-8.95l-0.15-1.15-0.6-2.8-0.05-1.6 1.649-0.05c1.601 1.7 2.733 3.9 3.4 6.6 0.633 2.4 0.95 5.483 0.95 9.25 0 0.667-0.034 1.2-0.101 1.601l-0.3-0.45c-2.731-6.701-4.331-10.501-4.798-11.401zm-16.3 14.3l-0.5-0.4c2.6-0.767 4.967-1.866 7.1-3.3 1.2-0.8 3-2.05 5.4-3.75l0.25-0.25c-0.367 1.833-1.667 3.883-3.9 6.149-3.133 3.134-5.117 5.301-5.95 6.5l-0.4-0.5c-1-2.665-1.667-4.149-2-4.449z" fill="#635B52"/>
	<path d="m25.45 47.4l6.1-2.051c-0.5 0.2-1.95 0.717-4.35 1.551-2.6 0.866-4.583 1.5-5.95 1.899-1.233 0.367-2.433 0.55-3.6 0.55-0.367 0-1.033-0.35-2-1.05-1.5-1.066-3.316-2.083-5.45-3.05l-0.6-0.2c-0.233-0.1-0.467-0.2-0.7-0.3 0.133-0.066 0.2-0.316 0.2-0.75 0-2.366-0.567-4.75-1.7-7.15-1.1-2.233-2.433-3.966-4-5.199 0.3 0.133 1.283 0.466 2.95 1 1.8 0.566 2.816 0.85 3.05 0.85-0.167 1.5 0.217 3.616 1.15 6.35 0.867 2.534 1.583 4 2.15 4.4 0.566-1.866 0.95-3.5 1.15-4.9 0.333-2.633 0.683-5.399 1.05-8.3 1.133-0.033 1.983-0.05 2.55-0.05-0.7 0.533-1.35 1.75-1.95 3.65-0.667 2.267-0.95 4.583-0.85 6.949 0.1 2.301 0.117 3.567 0.05 3.801 1.2 0.199 2.3 0.3 3.3 0.3 0.933 0 1.9-0.65 2.9-1.95 1.167-1.5 0.5-5.483-2-11.95-0.1-0.267-0.2-0.533-0.3-0.8 0.167 0.033 0.383 0.05 0.65 0.05 0.667 0.066 1.6 0.117 2.8 0.15 1.7 0.066 2.733 0.083 3.1 0.05l0.5 0.4c0.1 0.233 0.283 0.683 0.55 1.35 0.233 0.667 0.35 1.2 0.35 1.6 0 1.733-0.433 3.517-1.3 5.351-2.133 4.566-3.467 7.517-4 8.85l4.2-1.401zm-24.65-10.1c0.333 0.533 1.5 1.767 3.5 3.7 1.934 1.833 3.267 3 4 3.5-1.867-0.833-3.2-1.616-4-2.35-0.9-0.834-2.067-2.45-3.5-4.85zm0.05-6.35h-0.05l0.15-0.55h0.05l1.4 0.75-1.5-0.2h-0.05zm47.95-19.1c3.566 0.533 6.184 0.733 7.851 0.6 0.133 0.5 0.683 1.767 1.649 3.8 0 1.167-0.316 1.983-0.95 2.45-0.866 0.667-1.433 1.333-1.699 2-0.601 0.9-0.9 1.816-0.9 2.75 0 0.033 0.434 0.983 1.3 2.85-0.333 2.467-0.7 4.017-1.1 4.65-0.834 1.366-2.533 1.967-5.101 1.8v-0.6c0-0.534-0.183-1.634-0.55-3.301-0.399-1.8-0.816-3.316-1.25-4.55v-12.499l0.75 0.05z" fill="#9B9286"/>
</g>
</svg>